<svg width="15" height="15" viewBox="0 0 15 15" fill="none" xmlns="http://www.w3.org/2000/svg">
<path d="M10.6892 5.54818C10.2827 5.95562 10.2827 6.61626 10.6892 7.02369L11.4251 7.76145C11.5728 7.90945 11.7537 8.00371 11.9438 8.0442C12.1472 8.08755 12.3344 8.27071 12.2786 8.47106C12.0207 9.39788 11.5254 10.2411 10.8423 10.917C10.1591 11.593 9.31147 12.0783 8.38357 12.3247C8.2161 12.3692 8.06415 12.2148 8.04025 12.0432C8.01005 11.8263 7.91174 11.6172 7.74536 11.4504L7.00938 10.7126C6.60293 10.3052 5.94388 10.3052 5.53742 10.7126L4.0654 12.1882C3.65894 12.5956 3.65894 13.2562 4.0654 13.6637C4.36177 13.9608 4.64361 14.3322 5.0015 14.5584C5.38546 14.7899 5.88702 14.7584 6.33511 14.7733C7.07512 14.7978 8.22867 14.7483 8.9721 14.5508C10.287 14.2015 11.488 13.5139 12.4561 12.5561C13.4243 11.5983 14.1259 10.4035 14.4915 9.09011C14.7352 8.21481 14.7791 7.45358 14.7791 6.40707C14.7791 5.88381 14.7717 5.3675 14.4926 4.95927C14.4567 4.90685 14.4156 4.85699 14.3691 4.81043L13.6331 4.07261C13.2267 3.66517 12.5676 3.66517 12.1612 4.07261L10.6892 5.54818Z" fill="#18CC73"/>
<path d="M8.44775 12.5663L8.44771 12.5663C8.26689 12.6143 8.10351 12.55 7.99291 12.4526C7.88508 12.3577 7.81266 12.2215 7.79264 12.0777C7.76966 11.9127 7.69507 11.754 7.56839 11.627L7.56836 11.627L6.83239 10.8892C6.52362 10.5796 6.02319 10.5796 5.71441 10.8892L4.24239 12.3647C3.93328 12.6746 3.93328 13.1773 4.24239 13.4871C4.32608 13.571 4.41897 13.6719 4.5083 13.7689C4.57247 13.8386 4.6348 13.9063 4.69055 13.9643C4.83745 14.117 4.98021 14.2488 5.13278 14.3456C5.27925 14.4333 5.45812 14.4772 5.66912 14.4983C5.81862 14.5133 5.96571 14.5158 6.12103 14.5184C6.19303 14.5196 6.2668 14.5209 6.34339 14.5234C7.07498 14.5476 8.19976 14.4973 8.90792 14.3092C10.1806 13.9711 11.3431 13.3055 12.2802 12.3783L12.2803 12.3783C13.2175 11.4512 13.8967 10.2946 14.2507 9.02305C14.4852 8.18062 14.5291 7.44626 14.5291 6.40707C14.5291 5.86867 14.5145 5.43426 14.2862 5.10038C14.259 5.0606 14.2277 5.02262 14.1921 4.98701L14.1921 4.98698L13.4561 4.24917C13.4561 4.24917 13.4561 4.24917 13.4561 4.24916C13.1474 3.93965 12.6469 3.93965 12.3382 4.24917L10.8661 5.72475C10.557 6.0346 10.557 6.53727 10.8661 6.84713L11.6021 7.58489C11.7146 7.69766 11.8518 7.76899 11.9959 7.79969C12.1482 7.83216 12.2954 7.91594 12.3983 8.03619C12.5036 8.15917 12.575 8.33876 12.5195 8.5381C12.5195 8.5381 12.5195 8.5381 12.5195 8.53811L8.44775 12.5663ZM8.44775 12.5663C9.41785 12.3087 10.3039 11.8014 11.0181 11.0947L8.44775 12.5663Z" stroke="white" strokeOpacity="0.3" strokeWidth="0.5"/>
<path d="M5.32271 8.98242C5.03344 8.98242 4.79555 8.74643 4.83184 8.45875C4.94711 7.54499 5.36175 6.68955 6.01838 6.03134C6.67501 5.37312 7.52839 4.95747 8.43995 4.84193C8.72694 4.80555 8.96236 5.04402 8.96236 5.33399C8.96236 5.62395 8.72623 5.85452 8.44103 5.90303C7.80808 6.01071 7.21908 6.31275 6.7591 6.77384C6.29912 7.23493 5.9978 7.82535 5.89039 8.45983C5.84199 8.74571 5.61198 8.98242 5.32271 8.98242Z" fill="url(#paint0_radial_51_2)" fillOpacity="0.9"/>
<path d="M3.23546 8.98242C2.94925 8.98242 2.715 8.7494 2.73872 8.4635C2.86066 6.99323 3.49784 5.60687 4.54639 4.55579C5.59494 3.50471 6.97796 2.86599 8.44469 2.74375C8.72991 2.71998 8.96236 2.9548 8.96236 3.2417C8.96236 3.52859 8.72977 3.75848 8.44498 3.78697C7.25355 3.90615 6.13337 4.43427 5.27927 5.29044C4.42516 6.1466 3.89832 7.26948 3.77942 8.46379C3.751 8.74927 3.52166 8.98242 3.23546 8.98242Z" fill="url(#paint1_radial_51_2)" fillOpacity="0.9"/>
<path d="M1.16185 8.98242C0.871173 8.98242 0.633799 8.74591 0.652151 8.45511C0.779709 6.43383 1.63727 4.52085 3.0744 3.08025C4.51154 1.63965 6.4199 0.780019 8.43633 0.652153C8.72642 0.633758 8.96236 0.871704 8.96236 1.16308C8.96236 1.45446 8.72639 1.68868 8.43647 1.70973C6.69948 1.83587 5.05841 2.5837 3.81873 3.82637C2.57904 5.06905 1.83302 6.71408 1.70719 8.45526C1.68618 8.74588 1.45253 8.98242 1.16185 8.98242Z" fill="url(#paint2_radial_51_2)" fillOpacity="0.9"/>
<path d="M5.07987 8.49004C5.18825 7.63087 5.57812 6.82664 6.19537 6.2079C6.81261 5.58917 7.61471 5.19853 8.47139 5.08994C8.58711 5.07527 8.71236 5.17159 8.71236 5.33399C8.71236 5.47797 8.58955 5.62418 8.39911 5.65657C7.71525 5.77291 7.07897 6.09922 6.58211 6.59728C6.08526 7.09532 5.75989 7.73297 5.6439 8.4181C5.6114 8.61007 5.4651 8.73242 5.32271 8.73242C5.16238 8.73242 5.06501 8.60781 5.07987 8.49004ZM2.98786 8.48416C3.10495 7.07246 3.71675 5.74142 4.72338 4.73236C5.73 3.72331 7.05761 3.11022 8.46545 2.99289C8.59047 2.98247 8.71236 3.08616 8.71236 3.2417C8.71236 3.38545 8.59227 3.52099 8.4201 3.53821C7.17132 3.66313 5.99733 4.21665 5.10228 5.11387C4.20723 6.01108 3.65522 7.18768 3.53065 8.43902C3.51335 8.61285 3.37754 8.73242 3.23546 8.73242C3.08189 8.73242 2.97733 8.61115 2.98786 8.48416ZM0.901654 8.47086C1.0254 6.50995 1.85735 4.65422 3.25139 3.25682C4.64542 1.85942 6.49644 1.02567 8.45215 0.901652C8.58718 0.893089 8.71236 1.00468 8.71236 1.16308C8.71236 1.31267 8.58858 1.44803 8.41837 1.46039C6.6215 1.59088 4.92399 2.36446 3.64174 3.64981C2.3595 4.93514 1.58797 6.63652 1.45784 8.43724C1.44541 8.60916 1.30971 8.73242 1.16185 8.73242C1.00539 8.73242 0.89301 8.60784 0.901654 8.47086Z" stroke="white" strokeOpacity="0.3" strokeWidth="0.5"/>
<defs>
<radialGradient id="paint0_radial_51_2" cx="0" cy="0" r="1" gradientUnits="userSpaceOnUse" gradientTransform="translate(2.03636 9.18797) rotate(-50.9472) scale(10.993 11.2061)">
<stop stopColor="#4DFFA6"/>
<stop offset="1" stopColor="#49F29D"/>
</radialGradient>
<radialGradient id="paint1_radial_51_2" cx="0" cy="0" r="1" gradientUnits="userSpaceOnUse" gradientTransform="translate(2.03636 9.18797) rotate(-50.9472) scale(10.993 11.2061)">
<stop stopColor="#4DFFA6"/>
<stop offset="1" stopColor="#49F29D"/>
</radialGradient>
<radialGradient id="paint2_radial_51_2" cx="0" cy="0" r="1" gradientUnits="userSpaceOnUse" gradientTransform="translate(2.03636 9.18797) rotate(-50.9472) scale(10.993 11.2061)">
<stop stopColor="#4DFFA6"/>
<stop offset="1" stopColor="#49F29D"/>
</radialGradient>
</defs>
</svg>
