<svg width="12" height="12" viewBox="0 0 12 12" fill="none" xmlns="http://www.w3.org/2000/svg">
<path d="M7.68915 2.54818C7.2827 2.95562 7.2827 3.61626 7.68915 4.02369L8.42513 4.76145C8.57278 4.90945 8.75372 5.00371 8.94377 5.0442C9.14717 5.08755 9.33442 5.27071 9.27864 5.47106C9.02065 6.39788 8.52544 7.2411 7.84226 7.91702C7.15907 8.593 6.31147 9.07826 5.38357 9.32471C5.2161 9.36916 5.06415 9.2148 5.04025 9.04319C5.01005 8.82632 4.91174 8.61716 4.74536 8.45042L4.00938 7.7126C3.60293 7.30516 2.94388 7.30516 2.53742 7.7126L1.0654 9.18817C0.658945 9.59561 0.658945 10.2562 1.0654 10.6637C1.36177 10.9608 1.64361 11.3322 2.0015 11.5584C2.38546 11.7899 2.88702 11.7584 3.33511 11.7733C4.07512 11.7978 5.22867 11.7483 5.9721 11.5508C7.28695 11.2015 8.48796 10.5139 9.45608 9.55606C10.4243 8.59829 11.1259 7.40349 11.4915 6.09011C11.7352 5.21481 11.7791 4.45358 11.7791 3.40707C11.7791 2.88381 11.7717 2.3675 11.4926 1.95927C11.4567 1.90685 11.4156 1.85699 11.3691 1.81043L10.6331 1.07261C10.2267 0.665169 9.56763 0.665169 9.16118 1.07261L7.68915 2.54818Z" fill="#18CC73"/>
<path d="M5.44775 9.56633L5.44771 9.56634C5.26689 9.61434 5.10351 9.54998 4.99291 9.45264C4.88508 9.35775 4.81266 9.22146 4.79264 9.07767C4.76966 8.91266 4.69507 8.75395 4.56839 8.627L4.56836 8.62697L3.83239 7.88916C3.52362 7.57964 3.02319 7.57964 2.71441 7.88916L1.24239 9.36474C0.933282 9.67459 0.933282 10.1773 1.24239 10.4871C1.32608 10.571 1.41897 10.6719 1.5083 10.7689C1.57247 10.8386 1.6348 10.9063 1.69055 10.9643C1.83745 11.117 1.98021 11.2488 2.13278 11.3456C2.27925 11.4333 2.45812 11.4772 2.66912 11.4983C2.81862 11.5133 2.96571 11.5158 3.12103 11.5184C3.19303 11.5196 3.2668 11.5209 3.34339 11.5234C4.07498 11.5476 5.19976 11.4973 5.90792 11.3092C7.18057 10.9711 8.3431 10.3055 9.28024 9.37835L9.28026 9.37834C10.2175 8.4512 10.8967 7.29457 11.2507 6.02305C11.4852 5.18062 11.5291 4.44626 11.5291 3.40707C11.5291 2.86867 11.5145 2.43426 11.2862 2.10038C11.259 2.0606 11.2277 2.02262 11.1921 1.98701L11.1921 1.98698L10.4561 1.24917C10.4561 1.24917 10.4561 1.24917 10.4561 1.24916C10.1474 0.939648 9.64694 0.939651 9.33817 1.24917L7.86614 2.72475C7.55703 3.0346 7.55703 3.53727 7.86614 3.84713L8.60212 4.58489C8.71462 4.69766 8.85178 4.76899 8.99587 4.79969C9.14824 4.83216 9.2954 4.91594 9.39832 5.03619C9.50358 5.15917 9.57498 5.33876 9.51948 5.5381C9.51948 5.5381 9.51948 5.5381 9.51948 5.53811L5.44775 9.56633ZM5.44775 9.56633C6.41785 9.30867 7.30393 8.80136 8.01809 8.09473L5.44775 9.56633Z" stroke="white" stroke-opacity="0.3" stroke-width="0.5"/>
</svg>
