<svg width="9" height="9" viewBox="0 0 9 9" fill="none" xmlns="http://www.w3.org/2000/svg">
<path d="M5.32271 8.98242C5.03344 8.98242 4.79555 8.74643 4.83184 8.45875C4.94711 7.54499 5.36175 6.68955 6.01838 6.03133C6.67501 5.37312 7.52839 4.95747 8.43995 4.84193C8.72694 4.80555 8.96236 5.04402 8.96236 5.33399C8.96236 5.62395 8.72622 5.85452 8.44103 5.90303C7.80808 6.01071 7.21908 6.31275 6.7591 6.77384C6.29912 7.23493 5.9978 7.82535 5.89039 8.45983C5.84199 8.74571 5.61198 8.98242 5.32271 8.98242Z" fill="url(#paint0_radial_2_11)" fillOpacity="0.9"/>
<path d="M3.23546 8.98242C2.94925 8.98242 2.715 8.7494 2.73872 8.4635C2.86066 6.99323 3.49784 5.60687 4.54639 4.55579C5.59494 3.50471 6.97796 2.86599 8.44469 2.74375C8.72991 2.71998 8.96236 2.9548 8.96236 3.2417C8.96236 3.52859 8.72977 3.75848 8.44498 3.78697C7.25355 3.90615 6.13337 4.43427 5.27927 5.29044C4.42516 6.1466 3.89832 7.26948 3.77942 8.46379C3.751 8.74927 3.52166 8.98242 3.23546 8.98242Z" fill="url(#paint1_radial_2_11)" fillOpacity="0.9"/>
<path d="M1.16185 8.98242C0.871173 8.98242 0.633799 8.74591 0.652151 8.45511C0.779709 6.43383 1.63727 4.52085 3.0744 3.08025C4.51154 1.63965 6.4199 0.780019 8.43633 0.652153C8.72642 0.633758 8.96236 0.871704 8.96236 1.16308C8.96236 1.45446 8.72639 1.68868 8.43647 1.70973C6.69948 1.83587 5.05841 2.5837 3.81873 3.82637C2.57904 5.06905 1.83302 6.71408 1.70719 8.45526C1.68618 8.74588 1.45253 8.98242 1.16185 8.98242Z" fill="url(#paint2_radial_2_11)" fillOpacity="0.9"/>
<path d="M5.32271 8.73242C5.16238 8.73242 5.06501 8.60781 5.07987 8.49004C5.18825 7.63087 5.57812 6.82664 6.19537 6.2079C6.81261 5.58917 7.61471 5.19853 8.47139 5.08994C8.58711 5.07527 8.71236 5.17159 8.71236 5.33399C8.71236 5.47797 8.58955 5.62418 8.39911 5.65657C7.71525 5.77291 7.07897 6.09922 6.58211 6.59728C6.08526 7.09532 5.75989 7.73297 5.6439 8.4181C5.6114 8.61007 5.4651 8.73242 5.32271 8.73242ZM3.23546 8.73242C3.08189 8.73242 2.97733 8.61115 2.98786 8.48416C3.10495 7.07246 3.71675 5.74142 4.72338 4.73236C5.73 3.72331 7.05761 3.11022 8.46545 2.99289C8.59047 2.98247 8.71236 3.08616 8.71236 3.2417C8.71236 3.38545 8.59227 3.52099 8.4201 3.53821C7.17132 3.66313 5.99733 4.21665 5.10228 5.11387C4.20723 6.01108 3.65522 7.18768 3.53065 8.43902C3.51335 8.61285 3.37754 8.73242 3.23546 8.73242ZM1.16185 8.73242C1.00539 8.73242 0.89301 8.60784 0.901654 8.47086C1.0254 6.50995 1.85735 4.65422 3.25139 3.25682C4.64542 1.85942 6.49644 1.02567 8.45215 0.901652C8.58718 0.893089 8.71236 1.00468 8.71236 1.16308C8.71236 1.31267 8.58858 1.44803 8.41837 1.46039C6.6215 1.59088 4.92399 2.36446 3.64174 3.64981C2.3595 4.93514 1.58797 6.63652 1.45784 8.43724C1.44541 8.60916 1.30971 8.73242 1.16185 8.73242Z" stroke="white" strokeOpacity="0.3" strokeWidth="0.5"/>
<defs>
<radialGradient id="paint0_radial_2_11" cx="0" cy="0" r="1" gradientUnits="userSpaceOnUse" gradientTransform="translate(2.03636 9.18797) rotate(-50.9472) scale(10.993 11.2061)">
<stop stopColor="#4DFFA6"/>
<stop offset="1" stopColor="#49F29D"/>
</radialGradient>
<radialGradient id="paint1_radial_2_11" cx="0" cy="0" r="1" gradientUnits="userSpaceOnUse" gradientTransform="translate(2.03636 9.18797) rotate(-50.9472) scale(10.993 11.2061)">
<stop stopColor="#4DFFA6"/>
<stop offset="1" stopColor="#49F29D"/>
</radialGradient>
<radialGradient id="paint2_radial_2_11" cx="0" cy="0" r="1" gradientUnits="userSpaceOnUse" gradientTransform="translate(2.03636 9.18797) rotate(-50.9472) scale(10.993 11.2061)">
<stop stopColor="#4DFFA6"/>
<stop offset="1" stopColor="#49F29D"/>
</radialGradient>
</defs>
</svg>
